<svg width="211" height="217" fill="none" xmlns="http://www.w3.org/2000/svg"><path fill="#666" d="M0 0h2.705v2.705H0zM29.754 0h2.705v2.705h-2.705zM59.508 0h2.705v2.705h-2.705zM89.262 0h2.705v2.705h-2.705zM119.016 0h2.705v2.705h-2.705zM148.771 0h2.705v2.705h-2.705zM178.525 0h2.705v2.705h-2.705zM208.279 0h2.705v2.705h-2.705zM0 42.705h2.705v2.705H0zM29.754 42.705h2.705v2.705h-2.705zM59.508 42.705h2.705v2.705h-2.705zM89.262 42.705h2.705v2.705h-2.705zM119.016 42.705h2.705v2.705h-2.705zM148.771 42.705h2.705v2.705h-2.705zM178.525 42.705h2.705v2.705h-2.705zM208.279 42.705h2.705v2.705h-2.705zM0 85.41h2.705v2.705H0zM29.754 85.41h2.705v2.705h-2.705zM59.508 85.41h2.705v2.705h-2.705zM89.262 85.41h2.705v2.705h-2.705zM119.016 85.41h2.705v2.705h-2.705zM148.771 85.41h2.705v2.705h-2.705zM178.525 85.41h2.705v2.705h-2.705zM208.279 85.41h2.705v2.705h-2.705zM0 128.115h2.705v2.705H0zM29.754 128.115h2.705v2.705h-2.705zM59.508 128.115h2.705v2.705h-2.705zM89.262 128.115h2.705v2.705h-2.705zM119.016 128.115h2.705v2.705h-2.705zM148.771 128.115h2.705v2.705h-2.705zM178.525 128.115h2.705v2.705h-2.705zM208.279 128.115h2.705v2.705h-2.705zM0 170.819h2.705v2.705H0zM29.754 170.819h2.705v2.705h-2.705zM59.508 170.819h2.705v2.705h-2.705zM89.262 170.819h2.705v2.705h-2.705zM119.016 170.819h2.705v2.705h-2.705zM148.771 170.819h2.705v2.705h-2.705zM178.525 170.819h2.705v2.705h-2.705zM208.279 170.819h2.705v2.705h-2.705zM0 213.524h2.705v2.705H0zM29.754 213.524h2.705v2.705h-2.705zM59.508 213.524h2.705v2.705h-2.705zM89.262 213.524h2.705v2.705h-2.705zM119.016 213.524h2.705v2.705h-2.705zM148.771 213.524h2.705v2.705h-2.705zM178.525 213.524h2.705v2.705h-2.705zM208.279 213.524h2.705v2.705h-2.705z"/></svg>